<mxfile host="Electron" agent="Mozilla/5.0 (Windows NT 10.0; Win64; x64) AppleWebKit/537.36 (KHTML, like Gecko) draw.io/26.0.9 Chrome/128.0.6613.186 Electron/32.2.5 Safari/537.36" version="26.0.9">
  <diagram name="Страница — 1" id="E1N_JE_jYdEXVk8bY8EV">
    <mxGraphModel dx="1195" dy="697" grid="1" gridSize="10" guides="1" tooltips="1" connect="1" arrows="1" fold="1" page="1" pageScale="1" pageWidth="827" pageHeight="1169" math="0" shadow="0">
      <root>
        <mxCell id="0" />
        <mxCell id="1" parent="0" />
        <mxCell id="WM0oDS1lzDXTRrjqOVL7-18" value="" style="edgeStyle=orthogonalEdgeStyle;rounded=0;orthogonalLoop=1;jettySize=auto;html=1;" edge="1" source="WM0oDS1lzDXTRrjqOVL7-19" parent="1">
          <mxGeometry relative="1" as="geometry">
            <mxPoint x="310" y="160" as="targetPoint" />
          </mxGeometry>
        </mxCell>
        <mxCell id="WM0oDS1lzDXTRrjqOVL7-19" value="Начало" style="ellipse;whiteSpace=wrap;html=1;" vertex="1" parent="1">
          <mxGeometry x="250" y="90" width="120" height="40" as="geometry" />
        </mxCell>
        <mxCell id="WM0oDS1lzDXTRrjqOVL7-20" value="" style="edgeStyle=orthogonalEdgeStyle;rounded=0;orthogonalLoop=1;jettySize=auto;html=1;" edge="1" source="WM0oDS1lzDXTRrjqOVL7-21" parent="1">
          <mxGeometry relative="1" as="geometry">
            <mxPoint x="310" y="210" as="targetPoint" />
          </mxGeometry>
        </mxCell>
        <mxCell id="WM0oDS1lzDXTRrjqOVL7-21" value="int main()" style="shape=process;whiteSpace=wrap;html=1;backgroundOutline=1;" vertex="1" parent="1">
          <mxGeometry x="250" y="160" width="120" height="30" as="geometry" />
        </mxCell>
        <mxCell id="WM0oDS1lzDXTRrjqOVL7-24" value="setlocale(LC_ALL, &quot;Russian&quot;);" style="rounded=0;whiteSpace=wrap;html=1;" vertex="1" parent="1">
          <mxGeometry x="250" y="210" width="120" height="30" as="geometry" />
        </mxCell>
        <mxCell id="WM0oDS1lzDXTRrjqOVL7-25" value="" style="edgeStyle=orthogonalEdgeStyle;rounded=0;orthogonalLoop=1;jettySize=auto;html=1;" edge="1" parent="1">
          <mxGeometry relative="1" as="geometry">
            <mxPoint x="310" y="240" as="sourcePoint" />
            <mxPoint x="310" y="260" as="targetPoint" />
          </mxGeometry>
        </mxCell>
        <mxCell id="WM0oDS1lzDXTRrjqOVL7-26" value="&lt;div&gt;#include &amp;lt;iostream&amp;gt;&lt;/div&gt;&lt;div&gt;using namespace std;&lt;/div&gt;&lt;div&gt;&lt;div&gt;int arr[] = { 4, -2, 2, 8, 3, 3, -1, -5, 0 };&lt;/div&gt;&lt;div&gt;int n = sizeof(arr) / sizeof(arr[0]);&lt;/div&gt;&lt;/div&gt;" style="strokeWidth=2;html=1;shape=mxgraph.flowchart.annotation_2;align=left;labelPosition=right;pointerEvents=1;" vertex="1" parent="1">
          <mxGeometry x="390" y="90" width="50" height="100" as="geometry" />
        </mxCell>
        <mxCell id="WM0oDS1lzDXTRrjqOVL7-27" value="" style="endArrow=none;dashed=1;html=1;rounded=0;entryX=-0.04;entryY=0.503;entryDx=0;entryDy=0;entryPerimeter=0;" edge="1" target="WM0oDS1lzDXTRrjqOVL7-26" parent="1">
          <mxGeometry width="50" height="50" relative="1" as="geometry">
            <mxPoint x="310" y="140" as="sourcePoint" />
            <mxPoint x="380" y="140" as="targetPoint" />
          </mxGeometry>
        </mxCell>
        <mxCell id="WM0oDS1lzDXTRrjqOVL7-29" value="" style="edgeStyle=orthogonalEdgeStyle;rounded=0;orthogonalLoop=1;jettySize=auto;html=1;" edge="1" parent="1">
          <mxGeometry relative="1" as="geometry">
            <mxPoint x="310" y="240" as="sourcePoint" />
            <mxPoint x="310" y="260" as="targetPoint" />
          </mxGeometry>
        </mxCell>
        <mxCell id="WM0oDS1lzDXTRrjqOVL7-30" value="cout &amp;lt;&amp;lt; &quot;Исходный&amp;nbsp;&lt;div&gt;массив: &quot;;&lt;/div&gt;" style="shape=parallelogram;perimeter=parallelogramPerimeter;whiteSpace=wrap;html=1;fixedSize=1;" vertex="1" parent="1">
          <mxGeometry x="230" y="260" width="160" height="30" as="geometry" />
        </mxCell>
        <mxCell id="WM0oDS1lzDXTRrjqOVL7-31" value="" style="edgeStyle=orthogonalEdgeStyle;rounded=0;orthogonalLoop=1;jettySize=auto;html=1;" edge="1" parent="1">
          <mxGeometry relative="1" as="geometry">
            <mxPoint x="310" y="310" as="targetPoint" />
            <mxPoint x="310" y="290" as="sourcePoint" />
          </mxGeometry>
        </mxCell>
        <mxCell id="WM0oDS1lzDXTRrjqOVL7-32" value="print(arr, n);" style="rounded=0;whiteSpace=wrap;html=1;" vertex="1" parent="1">
          <mxGeometry x="250" y="310" width="120" height="30" as="geometry" />
        </mxCell>
        <mxCell id="WM0oDS1lzDXTRrjqOVL7-33" value="" style="edgeStyle=orthogonalEdgeStyle;rounded=0;orthogonalLoop=1;jettySize=auto;html=1;" edge="1" parent="1">
          <mxGeometry relative="1" as="geometry">
            <mxPoint x="310" y="360" as="targetPoint" />
            <mxPoint x="310" y="340" as="sourcePoint" />
          </mxGeometry>
        </mxCell>
        <mxCell id="WM0oDS1lzDXTRrjqOVL7-34" value="countingSort(arr, n);" style="rounded=0;whiteSpace=wrap;html=1;" vertex="1" parent="1">
          <mxGeometry x="250" y="360" width="120" height="30" as="geometry" />
        </mxCell>
        <mxCell id="WM0oDS1lzDXTRrjqOVL7-35" value="" style="edgeStyle=orthogonalEdgeStyle;rounded=0;orthogonalLoop=1;jettySize=auto;html=1;" edge="1" parent="1">
          <mxGeometry relative="1" as="geometry">
            <mxPoint x="310" y="390" as="sourcePoint" />
            <mxPoint x="310" y="410" as="targetPoint" />
          </mxGeometry>
        </mxCell>
        <mxCell id="WM0oDS1lzDXTRrjqOVL7-36" value="&lt;font style=&quot;font-size: 10px;&quot;&gt;&amp;nbsp;cout &amp;lt;&amp;lt; &quot;Отсортированный массив: &quot;;&lt;/font&gt;" style="shape=parallelogram;perimeter=parallelogramPerimeter;whiteSpace=wrap;html=1;fixedSize=1;" vertex="1" parent="1">
          <mxGeometry x="230" y="410" width="160" height="30" as="geometry" />
        </mxCell>
        <mxCell id="WM0oDS1lzDXTRrjqOVL7-37" value="" style="edgeStyle=orthogonalEdgeStyle;rounded=0;orthogonalLoop=1;jettySize=auto;html=1;" edge="1" parent="1">
          <mxGeometry relative="1" as="geometry">
            <mxPoint x="310" y="460" as="targetPoint" />
            <mxPoint x="310" y="440" as="sourcePoint" />
          </mxGeometry>
        </mxCell>
        <mxCell id="WM0oDS1lzDXTRrjqOVL7-38" style="edgeStyle=orthogonalEdgeStyle;rounded=0;orthogonalLoop=1;jettySize=auto;html=1;exitX=0.5;exitY=1;exitDx=0;exitDy=0;" edge="1" parent="1" source="WM0oDS1lzDXTRrjqOVL7-39">
          <mxGeometry relative="1" as="geometry">
            <mxPoint x="309.8571428571428" y="510" as="targetPoint" />
          </mxGeometry>
        </mxCell>
        <mxCell id="WM0oDS1lzDXTRrjqOVL7-39" value="print(arr, n);" style="rounded=0;whiteSpace=wrap;html=1;" vertex="1" parent="1">
          <mxGeometry x="250" y="460" width="120" height="30" as="geometry" />
        </mxCell>
        <mxCell id="WM0oDS1lzDXTRrjqOVL7-40" value="return 0;" style="ellipse;whiteSpace=wrap;html=1;" vertex="1" parent="1">
          <mxGeometry x="250" y="510" width="120" height="40" as="geometry" />
        </mxCell>
        <mxCell id="WM0oDS1lzDXTRrjqOVL7-41" value="}" style="text;html=1;align=center;verticalAlign=middle;resizable=0;points=[];autosize=1;strokeColor=none;fillColor=none;" vertex="1" parent="1">
          <mxGeometry x="340" y="540" width="30" height="30" as="geometry" />
        </mxCell>
        <mxCell id="WM0oDS1lzDXTRrjqOVL7-42" value="void print(int arr[], int n)" style="shape=process;whiteSpace=wrap;html=1;backgroundOutline=1;" vertex="1" parent="1">
          <mxGeometry x="740" y="50" width="170" height="30" as="geometry" />
        </mxCell>
        <mxCell id="WM0oDS1lzDXTRrjqOVL7-43" value="" style="edgeStyle=orthogonalEdgeStyle;rounded=0;orthogonalLoop=1;jettySize=auto;html=1;" edge="1" parent="1">
          <mxGeometry relative="1" as="geometry">
            <mxPoint x="823.9714285714285" y="80" as="sourcePoint" />
            <mxPoint x="823.9714285714285" y="100" as="targetPoint" />
          </mxGeometry>
        </mxCell>
        <mxCell id="WM0oDS1lzDXTRrjqOVL7-44" style="edgeStyle=orthogonalEdgeStyle;rounded=0;orthogonalLoop=1;jettySize=auto;html=1;exitX=1;exitY=0.5;exitDx=0;exitDy=0;" edge="1" parent="1" source="WM0oDS1lzDXTRrjqOVL7-45">
          <mxGeometry relative="1" as="geometry">
            <mxPoint x="1073.9714285714285" y="210" as="targetPoint" />
          </mxGeometry>
        </mxCell>
        <mxCell id="WM0oDS1lzDXTRrjqOVL7-45" value="" style="verticalLabelPosition=bottom;verticalAlign=top;html=1;shape=hexagon;perimeter=hexagonPerimeter2;arcSize=6;size=0.11951219512195121;" vertex="1" parent="1">
          <mxGeometry x="719.4714285714285" y="100" width="205" height="50" as="geometry" />
        </mxCell>
        <mxCell id="WM0oDS1lzDXTRrjqOVL7-46" value="" style="edgeStyle=orthogonalEdgeStyle;rounded=0;orthogonalLoop=1;jettySize=auto;html=1;" edge="1" parent="1">
          <mxGeometry relative="1" as="geometry">
            <mxPoint x="823.7314285714285" y="150" as="sourcePoint" />
            <mxPoint x="823.9714285714285" y="170" as="targetPoint" />
          </mxGeometry>
        </mxCell>
        <mxCell id="WM0oDS1lzDXTRrjqOVL7-47" value="for (int i = 0; i &amp;lt; n; i++)" style="text;html=1;align=center;verticalAlign=middle;whiteSpace=wrap;rounded=0;" vertex="1" parent="1">
          <mxGeometry x="763.9714285714285" y="110" width="120" height="30" as="geometry" />
        </mxCell>
        <mxCell id="WM0oDS1lzDXTRrjqOVL7-48" value="" style="edgeStyle=orthogonalEdgeStyle;rounded=0;orthogonalLoop=1;jettySize=auto;html=1;entryX=0;entryY=0.5;entryDx=0;entryDy=0;" edge="1" parent="1" target="WM0oDS1lzDXTRrjqOVL7-45">
          <mxGeometry relative="1" as="geometry">
            <mxPoint x="823.9714285714285" y="200" as="sourcePoint" />
            <mxPoint x="703.9714285714285" y="170" as="targetPoint" />
            <Array as="points">
              <mxPoint x="823.9714285714285" y="250" />
              <mxPoint x="699.9714285714285" y="250" />
              <mxPoint x="699.9714285714285" y="125" />
            </Array>
          </mxGeometry>
        </mxCell>
        <mxCell id="WM0oDS1lzDXTRrjqOVL7-49" value="a[i] = rand() % 25;" style="rounded=0;whiteSpace=wrap;html=1;" vertex="1" parent="1">
          <mxGeometry x="763.9714285714285" y="170" width="120" height="30" as="geometry" />
        </mxCell>
        <mxCell id="WM0oDS1lzDXTRrjqOVL7-50" value="cout &amp;lt;&amp;lt; arr[i] &amp;lt;&amp;lt; &quot; &quot;;" style="shape=parallelogram;perimeter=parallelogramPerimeter;whiteSpace=wrap;html=1;fixedSize=1;" vertex="1" parent="1">
          <mxGeometry x="743.97" y="170" width="160" height="30" as="geometry" />
        </mxCell>
        <mxCell id="WM0oDS1lzDXTRrjqOVL7-51" style="edgeStyle=orthogonalEdgeStyle;rounded=0;orthogonalLoop=1;jettySize=auto;html=1;exitX=0.5;exitY=1;exitDx=0;exitDy=0;" edge="1" parent="1" source="WM0oDS1lzDXTRrjqOVL7-52">
          <mxGeometry relative="1" as="geometry">
            <mxPoint x="1070" y="260" as="targetPoint" />
          </mxGeometry>
        </mxCell>
        <mxCell id="WM0oDS1lzDXTRrjqOVL7-52" value="&lt;div&gt;&amp;nbsp; &amp;nbsp; cout &amp;lt;&amp;lt; endl;&lt;/div&gt;" style="shape=parallelogram;perimeter=parallelogramPerimeter;whiteSpace=wrap;html=1;fixedSize=1;" vertex="1" parent="1">
          <mxGeometry x="990" y="210" width="160" height="30" as="geometry" />
        </mxCell>
        <mxCell id="WM0oDS1lzDXTRrjqOVL7-53" value="return;" style="ellipse;whiteSpace=wrap;html=1;" vertex="1" parent="1">
          <mxGeometry x="1010" y="260" width="120" height="40" as="geometry" />
        </mxCell>
        <mxCell id="WM0oDS1lzDXTRrjqOVL7-54" value="{" style="text;html=1;align=center;verticalAlign=middle;resizable=0;points=[];autosize=1;strokeColor=none;fillColor=none;" vertex="1" parent="1">
          <mxGeometry x="695" y="78" width="30" height="30" as="geometry" />
        </mxCell>
        <mxCell id="WM0oDS1lzDXTRrjqOVL7-55" value="}" style="text;html=1;align=center;verticalAlign=middle;resizable=0;points=[];autosize=1;strokeColor=none;fillColor=none;" vertex="1" parent="1">
          <mxGeometry x="1075" y="298" width="30" height="30" as="geometry" />
        </mxCell>
        <mxCell id="WM0oDS1lzDXTRrjqOVL7-57" style="edgeStyle=orthogonalEdgeStyle;rounded=0;orthogonalLoop=1;jettySize=auto;html=1;exitX=0.5;exitY=1;exitDx=0;exitDy=0;" edge="1" parent="1" source="WM0oDS1lzDXTRrjqOVL7-56">
          <mxGeometry relative="1" as="geometry">
            <mxPoint x="630.1428571428571" y="370" as="targetPoint" />
          </mxGeometry>
        </mxCell>
        <mxCell id="WM0oDS1lzDXTRrjqOVL7-56" value="&lt;div&gt;void countingSort(int arr[], int n)&amp;nbsp;&lt;/div&gt;" style="shape=process;whiteSpace=wrap;html=1;backgroundOutline=1;" vertex="1" parent="1">
          <mxGeometry x="520" y="320" width="220" height="30" as="geometry" />
        </mxCell>
        <mxCell id="WM0oDS1lzDXTRrjqOVL7-58" value="setlocale(LC_ALL, &quot;Russian&quot;);" style="rounded=0;whiteSpace=wrap;html=1;" vertex="1" parent="1">
          <mxGeometry x="260" y="220" width="120" height="30" as="geometry" />
        </mxCell>
        <mxCell id="WM0oDS1lzDXTRrjqOVL7-59" value="int minVal = arr[0];" style="rounded=0;whiteSpace=wrap;html=1;" vertex="1" parent="1">
          <mxGeometry x="570" y="370" width="120" height="30" as="geometry" />
        </mxCell>
        <mxCell id="WM0oDS1lzDXTRrjqOVL7-60" style="edgeStyle=orthogonalEdgeStyle;rounded=0;orthogonalLoop=1;jettySize=auto;html=1;exitX=0.5;exitY=1;exitDx=0;exitDy=0;" edge="1" parent="1">
          <mxGeometry relative="1" as="geometry">
            <mxPoint x="630.1428571428571" y="420" as="targetPoint" />
            <mxPoint x="630" y="400" as="sourcePoint" />
          </mxGeometry>
        </mxCell>
        <mxCell id="WM0oDS1lzDXTRrjqOVL7-61" value="int maxVal = arr[0];" style="rounded=0;whiteSpace=wrap;html=1;" vertex="1" parent="1">
          <mxGeometry x="570" y="420" width="120" height="30" as="geometry" />
        </mxCell>
        <mxCell id="WM0oDS1lzDXTRrjqOVL7-62" value="" style="edgeStyle=orthogonalEdgeStyle;rounded=0;orthogonalLoop=1;jettySize=auto;html=1;" edge="1" parent="1">
          <mxGeometry relative="1" as="geometry">
            <mxPoint x="633.9714285714285" y="450" as="sourcePoint" />
            <mxPoint x="633.9714285714285" y="470" as="targetPoint" />
          </mxGeometry>
        </mxCell>
        <mxCell id="WM0oDS1lzDXTRrjqOVL7-92" style="edgeStyle=orthogonalEdgeStyle;rounded=0;orthogonalLoop=1;jettySize=auto;html=1;exitX=1;exitY=0.5;exitDx=0;exitDy=0;" edge="1" parent="1" source="WM0oDS1lzDXTRrjqOVL7-64">
          <mxGeometry relative="1" as="geometry">
            <mxPoint x="969.9999999999998" y="540" as="targetPoint" />
          </mxGeometry>
        </mxCell>
        <mxCell id="WM0oDS1lzDXTRrjqOVL7-64" value="" style="verticalLabelPosition=bottom;verticalAlign=top;html=1;shape=hexagon;perimeter=hexagonPerimeter2;arcSize=6;size=0.11951219512195121;" vertex="1" parent="1">
          <mxGeometry x="529.4714285714285" y="470" width="205" height="50" as="geometry" />
        </mxCell>
        <mxCell id="WM0oDS1lzDXTRrjqOVL7-66" value="for (int i = 1; i &amp;lt; n; i++)&amp;nbsp;" style="text;html=1;align=center;verticalAlign=middle;whiteSpace=wrap;rounded=0;" vertex="1" parent="1">
          <mxGeometry x="573.9714285714285" y="480" width="120" height="30" as="geometry" />
        </mxCell>
        <mxCell id="WM0oDS1lzDXTRrjqOVL7-69" value="" style="edgeStyle=orthogonalEdgeStyle;rounded=0;orthogonalLoop=1;jettySize=auto;html=1;" edge="1" parent="1">
          <mxGeometry relative="1" as="geometry">
            <mxPoint x="633.702857142857" y="520.0000000000001" as="sourcePoint" />
            <mxPoint x="633.9428571428571" y="540.0000000000001" as="targetPoint" />
          </mxGeometry>
        </mxCell>
        <mxCell id="WM0oDS1lzDXTRrjqOVL7-70" value="" style="edgeStyle=orthogonalEdgeStyle;rounded=0;orthogonalLoop=1;jettySize=auto;html=1;" edge="1" parent="1">
          <mxGeometry relative="1" as="geometry">
            <mxPoint x="633.9428571428571" y="520.0000000000001" as="sourcePoint" />
            <mxPoint x="633.9428571428571" y="540.0000000000001" as="targetPoint" />
          </mxGeometry>
        </mxCell>
        <mxCell id="WM0oDS1lzDXTRrjqOVL7-71" style="edgeStyle=orthogonalEdgeStyle;rounded=0;orthogonalLoop=1;jettySize=auto;html=1;exitX=0;exitY=0.5;exitDx=0;exitDy=0;" edge="1" source="WM0oDS1lzDXTRrjqOVL7-73" parent="1">
          <mxGeometry relative="1" as="geometry">
            <mxPoint x="490" y="630.0000000000001" as="targetPoint" />
          </mxGeometry>
        </mxCell>
        <mxCell id="WM0oDS1lzDXTRrjqOVL7-73" value="if (arr[i] &amp;lt; minVal)&amp;nbsp;" style="rhombus;whiteSpace=wrap;html=1;" vertex="1" parent="1">
          <mxGeometry x="570" y="540.0000000000001" width="130" height="80" as="geometry" />
        </mxCell>
        <mxCell id="WM0oDS1lzDXTRrjqOVL7-74" style="edgeStyle=orthogonalEdgeStyle;rounded=0;orthogonalLoop=1;jettySize=auto;html=1;exitX=0.5;exitY=1;exitDx=0;exitDy=0;" edge="1" source="WM0oDS1lzDXTRrjqOVL7-75" parent="1">
          <mxGeometry relative="1" as="geometry">
            <mxPoint x="639.9999999999998" y="680.0000000000001" as="targetPoint" />
            <Array as="points">
              <mxPoint x="490" y="680.0000000000001" />
            </Array>
          </mxGeometry>
        </mxCell>
        <mxCell id="WM0oDS1lzDXTRrjqOVL7-75" value="minVal = arr[i];" style="rounded=0;whiteSpace=wrap;html=1;" vertex="1" parent="1">
          <mxGeometry x="430" y="630.0000000000001" width="120" height="30" as="geometry" />
        </mxCell>
        <mxCell id="WM0oDS1lzDXTRrjqOVL7-76" style="edgeStyle=orthogonalEdgeStyle;rounded=0;orthogonalLoop=1;jettySize=auto;html=1;exitX=1;exitY=0.5;exitDx=0;exitDy=0;" edge="1" source="WM0oDS1lzDXTRrjqOVL7-73" parent="1">
          <mxGeometry relative="1" as="geometry">
            <mxPoint x="639.9999999999998" y="680.0000000000001" as="targetPoint" />
            <Array as="points">
              <mxPoint x="790" y="580" />
              <mxPoint x="790" y="680" />
            </Array>
            <mxPoint x="790" y="660" as="sourcePoint" />
          </mxGeometry>
        </mxCell>
        <mxCell id="WM0oDS1lzDXTRrjqOVL7-78" value="" style="edgeStyle=orthogonalEdgeStyle;rounded=0;orthogonalLoop=1;jettySize=auto;html=1;" edge="1" parent="1">
          <mxGeometry relative="1" as="geometry">
            <mxPoint x="643.702857142857" y="680.0000000000001" as="sourcePoint" />
            <mxPoint x="643.9428571428571" y="700.0000000000001" as="targetPoint" />
          </mxGeometry>
        </mxCell>
        <mxCell id="WM0oDS1lzDXTRrjqOVL7-79" value="" style="edgeStyle=orthogonalEdgeStyle;rounded=0;orthogonalLoop=1;jettySize=auto;html=1;" edge="1" parent="1">
          <mxGeometry relative="1" as="geometry">
            <mxPoint x="643.9428571428571" y="680.0000000000001" as="sourcePoint" />
            <mxPoint x="643.9428571428571" y="700.0000000000001" as="targetPoint" />
          </mxGeometry>
        </mxCell>
        <mxCell id="WM0oDS1lzDXTRrjqOVL7-80" style="edgeStyle=orthogonalEdgeStyle;rounded=0;orthogonalLoop=1;jettySize=auto;html=1;exitX=0;exitY=0.5;exitDx=0;exitDy=0;" edge="1" source="WM0oDS1lzDXTRrjqOVL7-82" parent="1">
          <mxGeometry relative="1" as="geometry">
            <mxPoint x="500" y="790.0000000000001" as="targetPoint" />
          </mxGeometry>
        </mxCell>
        <mxCell id="WM0oDS1lzDXTRrjqOVL7-82" value="if (arr[i] &amp;gt; maxVal)" style="rhombus;whiteSpace=wrap;html=1;" vertex="1" parent="1">
          <mxGeometry x="580" y="700.0000000000001" width="130" height="80" as="geometry" />
        </mxCell>
        <mxCell id="WM0oDS1lzDXTRrjqOVL7-83" style="edgeStyle=orthogonalEdgeStyle;rounded=0;orthogonalLoop=1;jettySize=auto;html=1;exitX=0.5;exitY=1;exitDx=0;exitDy=0;" edge="1" source="WM0oDS1lzDXTRrjqOVL7-84" parent="1">
          <mxGeometry relative="1" as="geometry">
            <mxPoint x="649.9999999999998" y="840.0000000000001" as="targetPoint" />
            <Array as="points">
              <mxPoint x="500" y="840.0000000000001" />
            </Array>
          </mxGeometry>
        </mxCell>
        <mxCell id="WM0oDS1lzDXTRrjqOVL7-84" value="maxVal = arr[i];" style="rounded=0;whiteSpace=wrap;html=1;" vertex="1" parent="1">
          <mxGeometry x="440" y="790.0000000000001" width="120" height="30" as="geometry" />
        </mxCell>
        <mxCell id="WM0oDS1lzDXTRrjqOVL7-85" style="edgeStyle=orthogonalEdgeStyle;rounded=0;orthogonalLoop=1;jettySize=auto;html=1;exitX=1;exitY=0.5;exitDx=0;exitDy=0;" edge="1" source="WM0oDS1lzDXTRrjqOVL7-82" parent="1">
          <mxGeometry relative="1" as="geometry">
            <mxPoint x="649.9999999999998" y="840.0000000000001" as="targetPoint" />
            <Array as="points">
              <mxPoint x="800" y="740" />
              <mxPoint x="800" y="840" />
            </Array>
            <mxPoint x="800" y="820" as="sourcePoint" />
          </mxGeometry>
        </mxCell>
        <mxCell id="WM0oDS1lzDXTRrjqOVL7-87" value="" style="endArrow=classic;html=1;rounded=0;entryX=0;entryY=0.5;entryDx=0;entryDy=0;" edge="1" parent="1" target="WM0oDS1lzDXTRrjqOVL7-64">
          <mxGeometry width="50" height="50" relative="1" as="geometry">
            <mxPoint x="650" y="840" as="sourcePoint" />
            <mxPoint x="700" y="790" as="targetPoint" />
            <Array as="points">
              <mxPoint x="650" y="870" />
              <mxPoint x="420" y="870" />
              <mxPoint x="420" y="680" />
              <mxPoint x="420" y="495" />
            </Array>
          </mxGeometry>
        </mxCell>
        <mxCell id="WM0oDS1lzDXTRrjqOVL7-88" value="1" style="text;html=1;align=center;verticalAlign=middle;resizable=0;points=[];autosize=1;strokeColor=none;fillColor=none;" vertex="1" parent="1">
          <mxGeometry x="525" y="538" width="30" height="30" as="geometry" />
        </mxCell>
        <mxCell id="WM0oDS1lzDXTRrjqOVL7-89" value="0" style="text;html=1;align=center;verticalAlign=middle;resizable=0;points=[];autosize=1;strokeColor=none;fillColor=none;" vertex="1" parent="1">
          <mxGeometry x="705" y="548" width="30" height="30" as="geometry" />
        </mxCell>
        <mxCell id="WM0oDS1lzDXTRrjqOVL7-90" value="1" style="text;html=1;align=center;verticalAlign=middle;resizable=0;points=[];autosize=1;strokeColor=none;fillColor=none;" vertex="1" parent="1">
          <mxGeometry x="545" y="698" width="30" height="30" as="geometry" />
        </mxCell>
        <mxCell id="WM0oDS1lzDXTRrjqOVL7-91" value="0" style="text;html=1;align=center;verticalAlign=middle;resizable=0;points=[];autosize=1;strokeColor=none;fillColor=none;" vertex="1" parent="1">
          <mxGeometry x="705" y="698" width="30" height="30" as="geometry" />
        </mxCell>
        <mxCell id="WM0oDS1lzDXTRrjqOVL7-94" style="edgeStyle=orthogonalEdgeStyle;rounded=0;orthogonalLoop=1;jettySize=auto;html=1;exitX=0.5;exitY=1;exitDx=0;exitDy=0;" edge="1" parent="1" source="WM0oDS1lzDXTRrjqOVL7-93">
          <mxGeometry relative="1" as="geometry">
            <mxPoint x="964.1034482758621" y="580" as="targetPoint" />
          </mxGeometry>
        </mxCell>
        <mxCell id="WM0oDS1lzDXTRrjqOVL7-93" value="&amp;nbsp;int range = maxVal - minVal + 1;" style="rounded=0;whiteSpace=wrap;html=1;" vertex="1" parent="1">
          <mxGeometry x="903.97" y="538" width="120" height="30" as="geometry" />
        </mxCell>
        <mxCell id="WM0oDS1lzDXTRrjqOVL7-96" value="int* count = new int[range]();&amp;nbsp;" style="rounded=0;whiteSpace=wrap;html=1;" vertex="1" parent="1">
          <mxGeometry x="903.97" y="578" width="120" height="30" as="geometry" />
        </mxCell>
        <mxCell id="WM0oDS1lzDXTRrjqOVL7-97" value="" style="edgeStyle=orthogonalEdgeStyle;rounded=0;orthogonalLoop=1;jettySize=auto;html=1;" edge="1" parent="1">
          <mxGeometry relative="1" as="geometry">
            <mxPoint x="973.9714285714285" y="610" as="sourcePoint" />
            <mxPoint x="973.9714285714285" y="630" as="targetPoint" />
          </mxGeometry>
        </mxCell>
        <mxCell id="WM0oDS1lzDXTRrjqOVL7-98" style="edgeStyle=orthogonalEdgeStyle;rounded=0;orthogonalLoop=1;jettySize=auto;html=1;exitX=1;exitY=0.5;exitDx=0;exitDy=0;" edge="1" source="WM0oDS1lzDXTRrjqOVL7-99" parent="1">
          <mxGeometry relative="1" as="geometry">
            <mxPoint x="1224" y="700" as="targetPoint" />
          </mxGeometry>
        </mxCell>
        <mxCell id="WM0oDS1lzDXTRrjqOVL7-99" value="" style="verticalLabelPosition=bottom;verticalAlign=top;html=1;shape=hexagon;perimeter=hexagonPerimeter2;arcSize=6;size=0.11951219512195121;" vertex="1" parent="1">
          <mxGeometry x="869.4714285714285" y="630" width="205" height="50" as="geometry" />
        </mxCell>
        <mxCell id="WM0oDS1lzDXTRrjqOVL7-100" value="" style="edgeStyle=orthogonalEdgeStyle;rounded=0;orthogonalLoop=1;jettySize=auto;html=1;" edge="1" parent="1">
          <mxGeometry relative="1" as="geometry">
            <mxPoint x="973.7314285714285" y="680" as="sourcePoint" />
            <mxPoint x="973.9714285714285" y="700" as="targetPoint" />
          </mxGeometry>
        </mxCell>
        <mxCell id="WM0oDS1lzDXTRrjqOVL7-101" value="for (int i = 0; i &amp;lt; n; i++)&amp;nbsp;" style="text;html=1;align=center;verticalAlign=middle;whiteSpace=wrap;rounded=0;" vertex="1" parent="1">
          <mxGeometry x="913.9714285714285" y="640" width="120" height="30" as="geometry" />
        </mxCell>
        <mxCell id="WM0oDS1lzDXTRrjqOVL7-102" value="" style="edgeStyle=orthogonalEdgeStyle;rounded=0;orthogonalLoop=1;jettySize=auto;html=1;entryX=0;entryY=0.5;entryDx=0;entryDy=0;" edge="1" target="WM0oDS1lzDXTRrjqOVL7-99" parent="1">
          <mxGeometry relative="1" as="geometry">
            <mxPoint x="973.9714285714285" y="730" as="sourcePoint" />
            <mxPoint x="853.9714285714285" y="700" as="targetPoint" />
            <Array as="points">
              <mxPoint x="973.9714285714285" y="780" />
              <mxPoint x="849.9714285714285" y="780" />
              <mxPoint x="849.9714285714285" y="655" />
            </Array>
          </mxGeometry>
        </mxCell>
        <mxCell id="WM0oDS1lzDXTRrjqOVL7-103" value="count[arr[i] - minVal]++;" style="rounded=0;whiteSpace=wrap;html=1;" vertex="1" parent="1">
          <mxGeometry x="913.9714285714285" y="700" width="120" height="30" as="geometry" />
        </mxCell>
        <mxCell id="WM0oDS1lzDXTRrjqOVL7-104" value="int index = 0;" style="rounded=0;whiteSpace=wrap;html=1;" vertex="1" parent="1">
          <mxGeometry x="1160" y="700" width="120" height="30" as="geometry" />
        </mxCell>
        <mxCell id="WM0oDS1lzDXTRrjqOVL7-114" value="" style="edgeStyle=orthogonalEdgeStyle;rounded=0;orthogonalLoop=1;jettySize=auto;html=1;" edge="1" parent="1">
          <mxGeometry relative="1" as="geometry">
            <mxPoint x="1223.9714285714285" y="730" as="sourcePoint" />
            <mxPoint x="1223.9714285714285" y="750" as="targetPoint" />
          </mxGeometry>
        </mxCell>
        <mxCell id="WM0oDS1lzDXTRrjqOVL7-115" style="edgeStyle=orthogonalEdgeStyle;rounded=0;orthogonalLoop=1;jettySize=auto;html=1;exitX=1;exitY=0.5;exitDx=0;exitDy=0;" edge="1" source="WM0oDS1lzDXTRrjqOVL7-116" parent="1">
          <mxGeometry relative="1" as="geometry">
            <mxPoint x="1473.9714285714285" y="860" as="targetPoint" />
          </mxGeometry>
        </mxCell>
        <mxCell id="WM0oDS1lzDXTRrjqOVL7-116" value="" style="verticalLabelPosition=bottom;verticalAlign=top;html=1;shape=hexagon;perimeter=hexagonPerimeter2;arcSize=6;size=0.11951219512195121;" vertex="1" parent="1">
          <mxGeometry x="1119.4714285714285" y="750" width="205" height="50" as="geometry" />
        </mxCell>
        <mxCell id="WM0oDS1lzDXTRrjqOVL7-117" value="" style="edgeStyle=orthogonalEdgeStyle;rounded=0;orthogonalLoop=1;jettySize=auto;html=1;" edge="1" parent="1">
          <mxGeometry relative="1" as="geometry">
            <mxPoint x="1223.7314285714285" y="800" as="sourcePoint" />
            <mxPoint x="1223.9714285714285" y="820" as="targetPoint" />
          </mxGeometry>
        </mxCell>
        <mxCell id="WM0oDS1lzDXTRrjqOVL7-118" value="for (int i = 0; i &amp;lt; range; i++)&amp;nbsp;" style="text;html=1;align=center;verticalAlign=middle;whiteSpace=wrap;rounded=0;" vertex="1" parent="1">
          <mxGeometry x="1163.9714285714285" y="760" width="120" height="30" as="geometry" />
        </mxCell>
        <mxCell id="WM0oDS1lzDXTRrjqOVL7-122" style="edgeStyle=orthogonalEdgeStyle;rounded=0;orthogonalLoop=1;jettySize=auto;html=1;exitX=0.5;exitY=1;exitDx=0;exitDy=0;" edge="1" parent="1" source="WM0oDS1lzDXTRrjqOVL7-121">
          <mxGeometry relative="1" as="geometry">
            <mxPoint x="1224.1034482758623" y="900" as="targetPoint" />
          </mxGeometry>
        </mxCell>
        <mxCell id="WM0oDS1lzDXTRrjqOVL7-129" style="edgeStyle=orthogonalEdgeStyle;rounded=0;orthogonalLoop=1;jettySize=auto;html=1;exitX=1;exitY=0.5;exitDx=0;exitDy=0;entryX=0;entryY=0.5;entryDx=0;entryDy=0;" edge="1" parent="1" source="WM0oDS1lzDXTRrjqOVL7-121" target="WM0oDS1lzDXTRrjqOVL7-116">
          <mxGeometry relative="1" as="geometry">
            <Array as="points">
              <mxPoint x="1304" y="850" />
              <mxPoint x="1304" y="1080" />
              <mxPoint x="1099" y="1080" />
              <mxPoint x="1099" y="775" />
            </Array>
          </mxGeometry>
        </mxCell>
        <mxCell id="WM0oDS1lzDXTRrjqOVL7-121" value="&amp;nbsp;while (count[i] &amp;gt; 0)" style="rhombus;whiteSpace=wrap;html=1;" vertex="1" parent="1">
          <mxGeometry x="1163.97" y="820" width="120" height="60" as="geometry" />
        </mxCell>
        <mxCell id="WM0oDS1lzDXTRrjqOVL7-123" value="arr[index] = i + minVal;" style="rounded=0;whiteSpace=wrap;html=1;" vertex="1" parent="1">
          <mxGeometry x="1163.97" y="900" width="120" height="30" as="geometry" />
        </mxCell>
        <mxCell id="WM0oDS1lzDXTRrjqOVL7-124" style="edgeStyle=orthogonalEdgeStyle;rounded=0;orthogonalLoop=1;jettySize=auto;html=1;exitX=0.5;exitY=1;exitDx=0;exitDy=0;" edge="1" parent="1">
          <mxGeometry relative="1" as="geometry">
            <mxPoint x="1222.1034482758623" y="950" as="targetPoint" />
            <mxPoint x="1222" y="930" as="sourcePoint" />
          </mxGeometry>
        </mxCell>
        <mxCell id="WM0oDS1lzDXTRrjqOVL7-125" value="index++;" style="rounded=0;whiteSpace=wrap;html=1;" vertex="1" parent="1">
          <mxGeometry x="1161.97" y="950" width="120" height="30" as="geometry" />
        </mxCell>
        <mxCell id="WM0oDS1lzDXTRrjqOVL7-126" style="edgeStyle=orthogonalEdgeStyle;rounded=0;orthogonalLoop=1;jettySize=auto;html=1;exitX=0.5;exitY=1;exitDx=0;exitDy=0;" edge="1" parent="1">
          <mxGeometry relative="1" as="geometry">
            <mxPoint x="1224.1034482758623" y="1000" as="targetPoint" />
            <mxPoint x="1224" y="980" as="sourcePoint" />
          </mxGeometry>
        </mxCell>
        <mxCell id="WM0oDS1lzDXTRrjqOVL7-128" style="edgeStyle=orthogonalEdgeStyle;rounded=0;orthogonalLoop=1;jettySize=auto;html=1;exitX=0.5;exitY=1;exitDx=0;exitDy=0;entryX=0;entryY=0.5;entryDx=0;entryDy=0;" edge="1" parent="1" source="WM0oDS1lzDXTRrjqOVL7-127" target="WM0oDS1lzDXTRrjqOVL7-121">
          <mxGeometry relative="1" as="geometry" />
        </mxCell>
        <mxCell id="WM0oDS1lzDXTRrjqOVL7-127" value="&amp;nbsp;count[i]--;" style="rounded=0;whiteSpace=wrap;html=1;" vertex="1" parent="1">
          <mxGeometry x="1163.97" y="1000" width="120" height="30" as="geometry" />
        </mxCell>
        <mxCell id="WM0oDS1lzDXTRrjqOVL7-131" style="edgeStyle=orthogonalEdgeStyle;rounded=0;orthogonalLoop=1;jettySize=auto;html=1;exitX=0.5;exitY=1;exitDx=0;exitDy=0;" edge="1" parent="1" source="WM0oDS1lzDXTRrjqOVL7-130">
          <mxGeometry relative="1" as="geometry">
            <mxPoint x="1470.3103448275865" y="910" as="targetPoint" />
          </mxGeometry>
        </mxCell>
        <mxCell id="WM0oDS1lzDXTRrjqOVL7-130" value="delete[] count;" style="rounded=0;whiteSpace=wrap;html=1;" vertex="1" parent="1">
          <mxGeometry x="1410" y="860" width="120" height="30" as="geometry" />
        </mxCell>
        <mxCell id="WM0oDS1lzDXTRrjqOVL7-132" value="return;" style="ellipse;whiteSpace=wrap;html=1;" vertex="1" parent="1">
          <mxGeometry x="1410" y="910" width="120" height="50" as="geometry" />
        </mxCell>
        <mxCell id="WM0oDS1lzDXTRrjqOVL7-133" value="{" style="text;html=1;align=center;verticalAlign=middle;resizable=0;points=[];autosize=1;strokeColor=none;fillColor=none;" vertex="1" parent="1">
          <mxGeometry x="525" y="348" width="30" height="30" as="geometry" />
        </mxCell>
        <mxCell id="WM0oDS1lzDXTRrjqOVL7-134" value="{" style="text;html=1;align=center;verticalAlign=middle;resizable=0;points=[];autosize=1;strokeColor=none;fillColor=none;" vertex="1" parent="1">
          <mxGeometry x="565" y="518" width="30" height="30" as="geometry" />
        </mxCell>
        <mxCell id="WM0oDS1lzDXTRrjqOVL7-136" value="}" style="text;html=1;align=center;verticalAlign=middle;resizable=0;points=[];autosize=1;strokeColor=none;fillColor=none;" vertex="1" parent="1">
          <mxGeometry x="665" y="848" width="30" height="30" as="geometry" />
        </mxCell>
        <mxCell id="WM0oDS1lzDXTRrjqOVL7-137" value="{" style="text;html=1;align=center;verticalAlign=middle;resizable=0;points=[];autosize=1;strokeColor=none;fillColor=none;" vertex="1" parent="1">
          <mxGeometry x="1145" y="808" width="30" height="30" as="geometry" />
        </mxCell>
        <mxCell id="WM0oDS1lzDXTRrjqOVL7-138" value="{" style="text;html=1;align=center;verticalAlign=middle;resizable=0;points=[];autosize=1;strokeColor=none;fillColor=none;" vertex="1" parent="1">
          <mxGeometry x="1165" y="868" width="30" height="30" as="geometry" />
        </mxCell>
        <mxCell id="WM0oDS1lzDXTRrjqOVL7-139" value="}" style="text;html=1;align=center;verticalAlign=middle;resizable=0;points=[];autosize=1;strokeColor=none;fillColor=none;" vertex="1" parent="1">
          <mxGeometry x="1225" y="1038" width="30" height="30" as="geometry" />
        </mxCell>
        <mxCell id="WM0oDS1lzDXTRrjqOVL7-140" value="}" style="text;html=1;align=center;verticalAlign=middle;resizable=0;points=[];autosize=1;strokeColor=none;fillColor=none;" vertex="1" parent="1">
          <mxGeometry x="1475" y="978" width="30" height="30" as="geometry" />
        </mxCell>
      </root>
    </mxGraphModel>
  </diagram>
</mxfile>
